<?xml version="1.0" standalone="no"?>
<!DOCTYPE svg PUBLIC "-//W3C//DTD SVG 20010904//EN"
 "http://www.w3.org/TR/2001/REC-SVG-20010904/DTD/svg10.dtd">
<svg version="1.0" xmlns="http://www.w3.org/2000/svg"
 width="959.000000pt" height="960.000000pt" viewBox="0 0 959.000000 960.000000"
 preserveAspectRatio="xMidYMid meet">

<g transform="translate(0.000000,960.000000) scale(0.100000,-0.100000)"
fill="#000000" stroke="none">
<path d="M0 4800 l0 -4800 4795 0 4795 0 0 4800 0 4800 -4795 0 -4795 0 0
-4800z m2930 4530 c7 -13 7 -20 1 -20 -6 0 -15 9 -21 20 -7 13 -7 20 -1 20 6
0 15 -9 21 -20z m-410 -120 c0 -5 -2 -10 -4 -10 -3 0 -8 5 -11 10 -3 6 -1 10
4 10 6 0 11 -4 11 -10z m4454 -1672 c3 -13 3 -46 0 -74 -4 -28 -2 -59 3 -69
10 -17 16 -2 40 109 8 39 41 72 50 50 2 -6 25 -9 53 -8 45 2 51 0 56 -21 3
-13 -3 -39 -15 -63 -12 -23 -21 -47 -21 -53 0 -19 37 19 50 52 11 25 26 34 53
30 4 0 7 6 7 14 0 8 9 15 20 15 25 0 25 -7 0 -47 -18 -30 -18 -33 -2 -31 60 5
69 -21 25 -70 -34 -36 -56 -72 -49 -79 2 -3 26 16 53 41 26 25 51 46 55 46 4
0 10 -9 13 -20 3 -11 15 -20 26 -20 24 0 26 -32 3 -55 -15 -15 -14 -15 10 -9
19 4 27 2 32 -10 3 -9 12 -16 20 -16 8 0 14 -8 14 -18 0 -19 -17 -30 -80 -53
-50 -17 -61 -31 -20 -22 58 11 75 10 72 -8 -1 -9 5 -22 13 -29 12 -10 13 -16
4 -26 -6 -8 -15 -14 -20 -14 -5 0 -23 -9 -41 -21 l-33 -21 42 5 c45 5 67 -14
36 -32 -15 -8 -15 -11 -4 -25 12 -14 11 -19 -4 -30 -13 -9 -15 -15 -7 -20 19
-11 14 -26 -8 -26 -21 0 -27 -15 -10 -25 8 -5 8 -11 0 -20 -8 -9 -21 -10 -48
-4 -47 11 -54 11 -48 0 3 -5 21 -12 40 -15 30 -6 46 -21 46 -46 0 -4 -12 -11
-26 -14 -24 -6 -25 -8 -10 -25 20 -22 20 -31 0 -31 -12 0 -15 -6 -10 -25 8
-30 5 -30 -74 -5 -35 11 -65 18 -68 15 -2 -2 23 -21 57 -42 33 -21 61 -41 61
-45 0 -22 -39 -45 -68 -40 -37 5 -41 -7 -12 -33 28 -25 26 -34 -18 -74 -21
-20 -45 -51 -53 -68 -8 -19 -21 -33 -31 -33 -10 0 -18 -8 -18 -17 -1 -28 -36
-63 -63 -63 -13 0 -36 10 -51 21 -35 27 -46 16 -16 -15 16 -18 21 -32 16 -49
-9 -39 -42 -40 -84 -4 l-37 32 26 -35 c39 -53 42 -68 16 -82 -12 -7 -28 -11
-34 -10 -7 2 -13 -4 -13 -13 0 -8 -7 -15 -15 -15 -8 0 -15 -7 -15 -15 0 -19
-24 -19 -40 0 -17 20 -24 12 -11 -13 12 -23 3 -65 -13 -59 -17 7 -53 -24 -58
-48 -2 -14 -10 -19 -26 -17 -15 2 -22 -2 -22 -13 0 -12 -6 -15 -19 -10 -13 4
-24 -1 -34 -16 -19 -26 -48 -19 -67 16 -22 41 -22 21 0 -29 23 -50 19 -70 -10
-61 -18 6 -50 -17 -50 -36 0 -6 -4 -8 -9 -4 -6 3 -15 -4 -21 -16 -8 -13 -18
-19 -30 -16 -13 3 -22 -5 -35 -34 -15 -33 -19 -36 -32 -23 -17 17 -43 19 -43
3 0 -6 -6 -9 -14 -6 -8 3 -17 -1 -21 -10 -4 -13 -8 -14 -17 -5 -18 18 -30 14
-23 -8 4 -13 1 -22 -9 -26 -9 -3 -16 -12 -16 -19 0 -7 -13 -18 -30 -24 -16 -5
-30 -15 -30 -22 0 -9 -3 -9 -14 0 -11 9 -16 9 -23 -1 -4 -7 -21 -20 -38 -28
-44 -22 -57 -37 -50 -60 5 -16 2 -20 -16 -20 -23 0 -23 0 4 -28 28 -29 35 -52
17 -52 -6 0 -10 -6 -8 -12 1 -7 -3 -23 -10 -36 -10 -17 -18 -21 -40 -16 l-27
6 25 -18 c14 -9 27 -19 29 -20 2 -2 -2 -11 -10 -20 -17 -20 -22 -51 -9 -59 15
-9 12 -51 -5 -65 -12 -10 -25 -10 -61 -1 -51 13 -71 8 -33 -8 13 -6 33 -18 44
-27 16 -13 17 -17 6 -21 -11 -4 -9 -10 8 -22 20 -15 21 -19 9 -42 l-13 -26
-85 32 c-47 18 -94 36 -105 40 -18 7 -18 6 -5 -8 8 -8 51 -30 95 -49 112 -47
122 -53 107 -70 -9 -11 -9 -19 2 -33 8 -11 11 -26 8 -35 -8 -19 -54 -56 -67
-52 -5 1 2 -8 17 -20 21 -19 25 -29 21 -53 -3 -16 -13 -38 -21 -48 -12 -13
-13 -20 -4 -29 17 -17 15 -68 -3 -74 -18 -7 -19 -27 -3 -53 6 -10 8 -26 4 -36
-5 -15 -14 -17 -54 -12 l-47 7 33 -28 c36 -30 41 -56 15 -71 -17 -9 -16 -11 1
-30 18 -20 18 -22 3 -39 -10 -10 -17 -26 -17 -36 0 -9 -7 -19 -16 -23 -8 -3
-13 -12 -10 -19 3 -7 1 -16 -5 -20 -5 -3 -17 -24 -26 -46 -14 -36 -19 -39 -45
-36 l-28 5 34 -29 c29 -23 34 -33 27 -51 -7 -18 -15 -21 -45 -19 -40 4 -46 -6
-17 -32 19 -17 19 -18 0 -37 -10 -10 -23 -19 -28 -19 -5 0 -40 20 -77 45 -37
25 -69 43 -71 41 -2 -2 8 -12 22 -23 15 -10 45 -33 67 -52 32 -29 38 -39 33
-60 -3 -14 -14 -32 -23 -39 -9 -7 -16 -15 -14 -17 8 -15 0 -34 -12 -29 -18 7
-31 -13 -18 -29 9 -11 5 -67 -5 -67 -11 0 -73 36 -116 67 -63 46 -74 32 -17
-21 75 -70 85 -83 70 -101 -10 -12 -10 -15 4 -15 19 0 20 -9 1 -33 -18 -24
-49 -18 -53 10 -3 21 -71 87 -80 78 -2 -2 9 -21 26 -42 37 -47 49 -78 27 -69
-8 3 -15 1 -15 -4 0 -19 -17 -9 -75 45 -33 30 -63 55 -67 55 -18 0 -5 -21 47
-79 61 -68 67 -93 30 -117 -14 -9 -25 -23 -25 -30 0 -19 -13 -17 -40 6 -29 25
-38 18 -16 -14 9 -14 16 -30 16 -36 0 -18 -50 -59 -65 -54 -7 3 -16 -3 -19
-13 -3 -10 -17 -30 -31 -46 -22 -23 -29 -25 -46 -16 -26 13 -51 5 -43 -16 9
-21 -22 -66 -41 -59 -9 4 -15 0 -15 -10 0 -9 -7 -16 -15 -16 -8 0 -15 -4 -15
-9 0 -5 -16 -19 -35 -32 -19 -13 -35 -30 -35 -36 0 -29 -19 -11 -67 62 -31 47
-43 32 -14 -16 22 -36 28 -79 11 -79 -5 0 -10 -6 -10 -13 0 -7 -16 -21 -35
-30 -27 -13 -35 -23 -35 -42 0 -15 -4 -24 -9 -20 -5 3 -12 1 -16 -5 -3 -5 -15
-10 -26 -10 -10 0 -19 -4 -19 -10 0 -18 -40 -32 -56 -19 -12 10 -14 7 -12 -21
3 -29 -1 -35 -22 -40 -14 -3 -27 -14 -29 -25 -5 -28 -26 -45 -55 -45 -17 0
-26 -6 -26 -15 0 -9 -7 -18 -15 -21 -8 -4 -15 -12 -15 -20 0 -7 -13 -20 -30
-29 -28 -14 -31 -14 -47 5 -25 29 -34 25 -21 -11 9 -25 7 -32 -8 -44 -12 -8
-25 -10 -35 -4 -19 10 -30 2 -23 -16 8 -19 -35 -40 -49 -26 -16 16 -23 14 -36
-15 -11 -26 -12 -26 -31 -9 -19 17 -20 17 -20 -1 0 -22 -53 -56 -75 -48 -10 4
-15 0 -15 -13 0 -41 -51 -58 -76 -25 -12 15 -13 13 -14 -18 0 -59 -30 -76 -68
-40 -21 20 -22 20 -22 2 0 -30 -28 -46 -79 -47 -34 0 -47 -4 -49 -16 -2 -9
-14 -22 -27 -29 -20 -11 -27 -11 -40 0 -12 10 -19 10 -27 2 -7 -7 -20 -12 -30
-12 -9 0 -33 -9 -51 -19 -21 -12 -39 -16 -48 -11 -9 6 -22 -1 -40 -23 l-27
-32 -10 25 c-6 14 -14 39 -18 55 -8 28 -8 27 -14 -20 -4 -42 -8 -50 -27 -53
-13 -2 -23 1 -23 6 0 12 -78 8 -111 -6 -15 -6 -34 -20 -42 -32 -14 -20 -15
-20 -21 16 -6 30 -9 34 -19 21 -10 -13 -59 -22 -103 -18 -7 1 -15 17 -18 36
-8 40 -26 47 -26 11 0 -57 -38 -101 -53 -62 -4 11 -16 13 -40 9 -21 -3 -37 -1
-42 6 -5 9 -11 9 -22 0 -25 -21 -53 -18 -59 7 -9 35 -9 95 0 132 6 21 5 32 -2
32 -11 0 -24 -41 -37 -113 -3 -21 -15 -47 -26 -58 -23 -23 -79 -26 -79 -4 0 9
-8 19 -17 22 -10 4 -21 11 -24 16 -4 5 -16 4 -29 -3 -17 -9 -24 -9 -29 -1 -5
7 -23 -4 -49 -31 -24 -24 -42 -36 -42 -27 0 8 -9 20 -20 27 -11 7 -20 17 -20
23 0 6 -7 17 -15 26 -12 12 -19 12 -30 3 -9 -7 -22 -9 -32 -5 -10 5 -21 8 -24
7 -3 -1 -12 10 -19 23 -7 14 -19 25 -27 25 -22 0 -15 49 13 86 15 19 24 37 20
41 -3 3 -7 4 -9 2 -48 -64 -83 -99 -98 -99 -11 0 -19 5 -19 11 0 6 -7 9 -15 5
-8 -3 -21 2 -30 10 -8 8 -19 13 -24 9 -13 -7 -45 41 -37 54 4 5 2 12 -4 16 -5
3 -10 17 -10 31 0 22 -2 23 -20 14 -12 -6 -35 -10 -53 -8 -28 3 -32 7 -35 33
-3 27 3 36 42 64 42 29 77 71 60 71 -3 0 -22 -14 -41 -31 -19 -17 -41 -28 -49
-25 -7 3 -16 1 -19 -4 -12 -19 -27 -10 -23 13 4 18 0 23 -16 23 -15 -1 -24 8
-30 30 -7 25 -18 35 -48 45 -21 7 -38 15 -38 19 0 3 11 22 25 40 25 34 25 35
5 44 -11 5 -20 15 -20 23 0 7 -7 13 -15 13 -8 0 -15 6 -15 14 0 8 7 21 15 30
21 20 19 26 -7 26 -30 0 -52 44 -37 72 6 10 8 24 6 31 -2 7 5 22 16 35 l20 22
-25 0 c-14 0 -28 6 -31 13 -8 22 18 109 36 119 23 12 21 25 -3 33 -16 5 -19
12 -14 33 4 15 12 33 20 41 10 12 9 17 -9 33 l-22 18 33 28 c24 22 40 28 65
25 24 -3 29 -2 17 6 -8 6 -27 11 -41 11 -18 0 -29 8 -38 26 -9 22 -8 30 10 55
11 16 27 29 35 29 8 0 14 6 13 13 -1 6 3 24 9 40 16 37 54 36 161 -5 14 -5 28
-5 33 0 9 9 -77 52 -104 52 -28 0 -58 31 -58 59 0 29 15 41 49 41 18 0 75 58
77 78 2 29 5 33 29 42 14 5 29 20 34 33 5 14 17 27 25 30 9 4 16 16 16 27 0
11 7 23 15 26 8 4 15 17 15 30 0 16 6 24 18 24 9 0 23 9 30 20 7 11 21 20 32
20 19 0 56 31 76 65 11 20 21 27 70 46 21 8 30 18 27 29 -5 20 50 62 71 54 11
-4 16 0 16 14 0 24 25 46 44 39 9 -4 21 4 31 19 11 17 22 23 35 19 13 -4 22 1
30 15 6 11 15 18 21 15 15 -10 49 5 49 22 0 11 6 14 22 9 16 -4 34 3 60 24 20
17 44 30 53 30 8 0 21 11 27 25 14 32 47 43 63 21 15 -20 25 -21 25 -3 0 8 9
22 20 32 13 12 20 14 20 5 0 -10 3 -10 15 0 16 13 35 6 35 -15 0 -9 10 -13 28
-12 26 2 27 0 27 -45 0 -55 10 -53 26 5 21 83 51 105 88 68 18 -18 19 -18 35
10 20 33 46 38 46 9 0 -26 15 -25 34 2 l16 22 0 -26 c0 -14 -7 -42 -15 -61
-17 -42 -18 -47 -7 -47 5 0 18 18 31 40 12 22 24 40 27 40 17 0 46 -42 41 -59
-6 -25 5 -27 23 -6 7 8 21 15 31 15 19 0 19 -2 4 -31 -24 -46 -12 -59 16 -17
23 35 49 57 49 40 0 -4 18 -7 40 -7 24 0 42 -5 45 -13 3 -7 10 -10 15 -7 6 4
17 1 26 -5 12 -11 11 -17 -11 -46 -25 -33 -33 -64 -16 -64 5 0 28 22 50 49 32
38 49 50 76 53 44 5 48 1 30 -26 -8 -11 -15 -29 -15 -40 0 -11 -10 -30 -22
-43 -27 -29 -6 -31 40 -3 18 11 35 20 37 20 12 0 3 -26 -18 -54 -13 -17 -27
-39 -30 -49 -6 -16 -1 -15 39 7 51 28 70 26 53 -6 -9 -17 -9 -20 4 -15 8 3 23
0 33 -7 16 -12 16 -14 -5 -35 l-23 -23 30 7 c40 8 52 -12 21 -36 -13 -10 -50
-24 -81 -31 -32 -7 -58 -16 -58 -20 0 -12 30 -9 75 7 61 22 85 20 85 -9 0 -30
-11 -38 -73 -51 -73 -15 -53 -30 36 -28 61 2 77 -1 77 -12 0 -7 -4 -16 -10
-20 -5 -3 -7 -11 -4 -18 2 -7 -8 -20 -23 -29 -27 -17 -27 -17 -5 -18 16 0 22
-6 22 -21 0 -21 -3 -22 -75 -16 -41 3 -77 2 -80 -3 -6 -10 73 -30 120 -30 24
0 38 -5 42 -17 4 -9 1 -19 -5 -21 -7 -2 -12 -10 -12 -17 0 -7 -8 -16 -17 -20
-16 -6 -15 -8 6 -19 23 -13 23 -14 5 -27 -11 -8 -19 -25 -19 -39 0 -27 5 -27
-105 -14 -68 7 -51 -10 28 -27 28 -7 52 -15 52 -19 0 -3 -13 -20 -28 -38 l-28
-31 -67 24 c-76 26 -76 11 -1 -24 47 -22 64 -59 22 -47 -61 19 -63 18 -30 -9
56 -46 36 -60 -37 -24 -24 11 -45 19 -47 17 -2 -3 12 -20 31 -38 41 -39 44
-55 12 -46 -27 6 -57 -22 -57 -54 0 -18 -3 -19 -21 -9 -21 11 -38 0 -39 -23 0
-5 -8 -8 -18 -8 -10 0 -25 -11 -32 -25 -18 -33 -30 -32 -76 10 -21 19 -39 35
-41 35 -7 0 17 -37 32 -50 45 -38 37 -90 -13 -90 -21 0 -31 -7 -38 -25 l-9
-26 -40 35 c-31 27 -41 32 -43 20 -2 -9 1 -21 7 -27 17 -17 13 -35 -10 -47
-14 -8 -24 -8 -33 -1 -19 16 -77 2 -99 -23 l-18 -21 -15 23 c-21 29 -34 28
-34 -4 0 -15 -4 -23 -11 -19 -5 4 -19 -1 -29 -10 -15 -13 -25 -15 -55 -6 -30
8 -36 7 -31 -4 8 -22 -12 -28 -39 -11 -20 13 -25 13 -35 1 -19 -23 -35 -18
-68 21 -31 36 -52 32 -32 -7 15 -27 6 -49 -20 -49 -11 0 -20 -4 -20 -9 0 -21
-35 -22 -52 -2 -9 12 -25 21 -35 21 -10 0 -25 6 -32 13 -10 10 -15 9 -25 -5
-20 -27 -33 -22 -60 20 -24 39 -90 102 -106 102 -5 0 -16 15 -25 34 -24 50 -8
76 45 76 22 0 40 4 40 9 0 18 62 42 76 30 7 -6 19 -7 26 -3 7 5 20 7 29 6 9
-2 21 4 28 12 7 8 19 12 27 9 9 -3 14 1 14 12 0 9 9 19 20 22 11 3 20 11 20
19 0 19 49 29 71 16 23 -15 63 -1 81 28 7 11 21 20 31 20 9 0 25 9 34 19 13
16 20 17 41 8 21 -10 27 -8 46 14 41 50 91 44 126 -14 23 -38 25 -28 6 28 -17
47 -5 80 25 72 12 -3 23 2 30 15 8 15 17 18 40 13 27 -6 30 -4 36 25 7 37 20
44 56 31 25 -10 27 -8 27 15 0 25 4 28 52 38 21 5 30 15 39 46 9 31 17 40 34
40 20 0 21 5 19 53 -1 28 -6 63 -11 77 -6 14 -8 30 -6 37 2 6 -11 26 -30 45
-18 18 -37 41 -40 51 -4 11 -17 17 -36 17 -19 0 -34 7 -40 18 -7 14 -18 18
-42 14 -21 -3 -36 0 -43 10 -6 8 -28 18 -49 22 -20 4 -43 16 -50 26 -12 21
-37 27 -37 10 0 -15 -78 -12 -83 3 -6 17 -47 -21 -47 -45 0 -28 -37 -22 -53 8
l-14 27 -7 -34 c-4 -23 -9 -30 -17 -22 -8 8 -19 6 -40 -4 -16 -8 -38 -12 -49
-8 -14 5 -20 2 -20 -10 0 -23 -47 -42 -70 -27 -22 14 -34 1 -26 -26 5 -14 -4
-24 -33 -40 -21 -12 -46 -22 -55 -22 -9 0 -15 -6 -13 -12 1 -9 -8 -12 -26 -10
-25 3 -28 0 -22 -18 8 -24 -20 -51 -42 -43 -7 3 -13 0 -13 -6 0 -7 -9 -21 -20
-33 -11 -12 -20 -18 -20 -14 0 4 -15 -9 -34 -28 -18 -20 -38 -36 -45 -36 -6 0
-11 -13 -11 -30 0 -22 -5 -30 -18 -30 -26 0 -33 -10 -22 -30 7 -14 4 -24 -15
-42 -14 -12 -25 -29 -25 -36 0 -7 -8 -19 -19 -28 -11 -10 -16 -24 -14 -35 3
-11 0 -19 -6 -19 -6 0 -11 -9 -11 -19 0 -23 -17 -31 -52 -24 -23 4 -24 2 -20
-25 2 -18 -2 -35 -13 -45 -9 -10 -14 -25 -10 -36 3 -10 -1 -24 -10 -31 -12
-10 -13 -16 -3 -28 13 -15 18 -82 6 -82 -3 0 -5 -16 -4 -35 2 -20 -1 -35 -7
-35 -7 0 -7 -4 1 -12 7 -7 12 -20 12 -30 0 -10 4 -18 8 -18 5 0 15 -23 22 -50
10 -37 20 -52 35 -56 11 -3 21 -13 22 -22 1 -9 5 -39 10 -67 7 -45 11 -50 36
-53 19 -2 29 -10 33 -28 5 -18 11 -23 24 -19 18 6 35 -19 24 -36 -3 -5 0 -9 7
-9 7 0 20 -6 28 -14 9 -8 36 -18 61 -23 42 -9 45 -11 42 -38 l-4 -30 24 23
c29 26 81 31 71 6 -5 -13 0 -14 32 -8 26 4 40 3 45 -6 4 -7 27 -13 52 -14 24
-1 49 -6 56 -10 7 -4 21 -4 30 0 24 10 122 12 122 2 0 -5 10 -6 23 -3 43 10
97 12 97 4 0 -14 35 -16 51 -2 8 7 29 14 45 15 16 2 36 10 45 19 11 11 26 15
43 12 18 -4 28 0 32 10 5 15 103 35 144 30 9 -1 26 14 39 33 29 42 52 41 67
-4 11 -36 24 -33 24 7 0 33 37 71 70 71 27 0 52 21 63 53 5 13 13 16 27 12 11
-3 20 -2 20 4 0 12 28 41 40 41 4 0 17 -19 28 -42 l21 -43 1 33 c0 24 10 43
34 68 31 32 35 33 50 19 15 -15 16 -14 16 9 0 25 23 56 42 56 5 0 19 12 30 26
13 16 27 24 39 21 11 -3 19 2 22 13 3 10 15 20 28 22 16 2 25 11 27 25 3 20
40 39 70 34 6 -1 12 4 12 11 1 16 35 58 47 58 5 0 13 15 18 33 8 25 15 31 32
29 25 -3 33 6 34 45 3 64 17 77 49 48 16 -14 19 -13 41 15 13 17 32 41 42 52
10 12 20 33 24 47 3 14 14 34 24 44 11 10 19 29 19 42 0 15 6 25 15 25 8 0 25
23 37 50 21 47 25 50 52 45 23 -4 26 -2 18 8 -13 16 -4 87 11 87 5 0 15 7 22
16 10 14 15 15 36 4 20 -10 22 -10 12 1 -17 18 -16 58 1 65 8 3 16 18 20 35 3
16 10 29 16 29 15 0 50 33 50 47 0 7 8 13 19 13 16 0 17 4 8 50 -8 42 -7 53 7
68 9 10 16 24 16 30 0 7 7 12 15 12 8 0 15 6 15 14 0 8 6 16 13 19 9 3 9 8 -3
21 -13 16 -12 20 5 32 23 17 37 18 53 2 21 -21 23 -2 2 25 -17 21 -19 30 -10
47 6 11 15 20 20 20 6 0 10 6 10 14 0 8 15 30 33 49 30 32 31 36 15 46 -21 13
-24 66 -5 74 16 6 52 74 52 97 0 8 10 19 21 24 l22 10 -21 16 c-12 10 -18 22
-13 31 4 8 15 30 26 49 11 21 15 39 9 45 -24 24 8 75 47 75 27 0 41 34 23 56
-10 12 -14 12 -20 2 -7 -10 -11 -10 -21 0 -18 18 -28 15 -28 -8 0 -19 -17 -25
-61 -22 -9 1 -19 -7 -22 -18 -6 -25 -64 -28 -73 -5 -11 27 -24 16 -18 -15 4
-18 1 -36 -6 -45 -17 -21 -76 -19 -89 3 -9 14 -11 12 -17 -15 -3 -18 -9 -33
-13 -33 -30 1 -52 17 -63 46 -14 41 -32 46 -21 7 18 -68 -1 -117 -42 -107 -17
4 -26 0 -34 -14 -6 -11 -24 -22 -42 -26 -22 -4 -30 -10 -25 -21 8 -21 -30 -20
-42 1 -6 11 -14 14 -23 8 -8 -5 -23 -9 -34 -9 -15 0 -19 -6 -18 -22 2 -18 -5
-23 -48 -33 -27 -7 -53 -9 -56 -6 -4 3 -17 -1 -31 -10 -25 -17 -92 -12 -92 6
0 19 -17 10 -28 -15 -13 -29 -28 -31 -54 -9 -19 18 -18 19 -34 -35 -5 -15 -63
-8 -74 9 -9 14 -58 -11 -64 -32 -5 -19 -36 -25 -36 -7 0 7 -7 8 -17 4 -10 -4
-22 -8 -28 -9 -5 -1 -15 -5 -22 -9 -6 -4 -18 -1 -25 6 -7 8 -20 12 -30 9 -16
-4 -24 12 -19 41 2 16 -9 5 -24 -23 -19 -37 -37 -38 -63 -5 l-20 25 -25 -29
c-24 -29 -26 -29 -62 -17 -25 9 -42 23 -51 42 -12 27 -14 25 -18 -16 -1 -18
-43 -15 -63 6 -10 10 -20 11 -32 4 -19 -10 -41 4 -41 27 0 9 -9 11 -30 7 -21
-5 -30 -3 -30 7 0 10 -3 10 -12 1 -17 -17 -58 -15 -58 2 0 17 -51 56 -74 56
-9 0 -19 7 -22 15 -7 18 -31 20 -37 3 -6 -20 -39 12 -34 32 3 12 -4 16 -30 16
-19 0 -38 6 -43 14 -4 7 -23 18 -41 24 -43 14 -45 27 -12 67 l28 34 -44 -33
c-54 -38 -68 -40 -83 -7 -8 19 -8 28 2 40 11 13 9 15 -14 15 -35 0 -66 17 -66
35 0 8 -9 19 -21 26 -15 8 -20 18 -16 35 3 19 0 23 -17 21 -16 -2 -20 3 -19
21 2 12 -2 22 -7 22 -6 0 -10 11 -10 25 0 15 -5 25 -12 24 -27 -3 -38 2 -38
16 0 8 -9 15 -20 15 -19 0 -19 1 -2 31 18 32 113 79 186 93 19 4 38 12 42 18
10 16 -62 4 -128 -22 -42 -16 -67 -21 -94 -16 -33 7 -36 9 -31 36 5 20 2 30
-10 34 -10 4 -13 14 -10 28 4 12 2 27 -4 34 -18 22 22 54 79 63 80 12 76 24
-5 16 l-73 -7 0 31 c0 41 16 47 133 56 53 4 97 11 97 16 0 5 -44 9 -98 9 -73
0 -103 4 -120 16 l-23 16 26 34 c14 19 22 34 16 34 -17 0 -23 38 -10 62 7 13
12 33 10 46 -4 37 16 52 73 52 28 0 71 -5 95 -11 30 -6 47 -7 54 0 12 12 -65
48 -125 57 -30 5 -42 13 -49 31 -12 33 5 63 36 63 17 0 23 4 19 14 -3 8 4 24
15 35 11 11 20 31 18 43 -2 19 4 24 26 26 25 3 28 7 23 28 -5 19 -1 27 18 36
21 9 35 6 87 -16 34 -15 64 -25 66 -22 3 2 -15 17 -39 33 -73 48 -87 80 -43
103 14 7 25 21 25 30 0 24 38 60 55 54 11 -5 15 1 15 20 0 20 5 26 23 26 27 0
41 10 50 33 3 9 14 17 22 17 9 0 14 4 11 9 -4 5 -2 21 4 35 7 20 16 26 39 26
21 0 32 6 36 20 4 13 15 20 30 20 15 0 26 7 30 21 5 13 14 19 28 17 27 -4 77
46 77 77 0 43 50 71 77 44 9 -9 14 -5 19 15 4 18 11 25 21 22 8 -3 18 -6 23
-6 5 0 23 -12 41 -27 27 -23 32 -25 24 -8 -20 49 -12 69 38 93 26 12 47 27 47
32 0 6 9 10 20 10 12 0 20 7 20 16 0 13 7 15 33 10 20 -3 41 0 57 9 14 8 33
18 43 21 9 3 17 14 17 24 0 20 25 34 53 31 9 -1 17 3 17 9 0 6 11 15 25 22 19
9 29 8 49 -6 24 -15 27 -15 44 1 27 27 69 46 82 38 7 -4 14 1 17 14 6 22 27
28 38 11 4 -7 11 -8 18 -1 7 5 30 13 52 17 22 4 45 14 52 23 7 9 13 12 13 7 0
-5 7 -3 15 4 8 7 21 10 30 7 8 -4 17 -2 21 4 3 6 18 7 34 4 20 -4 29 -2 33 9
5 12 21 16 61 16 30 0 57 4 60 9 3 5 26 7 51 5 37 -2 47 1 56 17 8 15 19 19
42 17 27 -3 33 -9 47 -50 22 -64 29 -68 23 -16 -6 55 10 72 55 58 18 -5 32 -5
32 0 0 15 45 19 66 5 15 -10 24 -11 32 -3 18 18 103 0 109 -23 7 -24 23 -25
23 0 0 10 7 24 15 31 13 10 19 10 34 -4 13 -12 21 -14 26 -6 4 6 13 9 20 6 16
-6 75 15 75 26 0 4 11 8 25 8 14 0 25 -5 25 -10 0 -6 8 -5 21 2 17 11 22 10
30 -4 7 -13 20 -16 68 -12 37 3 62 1 66 -6 5 -8 14 -6 30 4 24 16 35 10 48
-24 4 -12 6 -11 6 3 1 11 9 17 24 17 12 0 32 3 44 6 18 5 23 1 29 -21 4 -17
11 -24 20 -21 8 3 24 2 36 -3 14 -5 30 -4 40 2 12 8 21 7 34 -3 9 -8 22 -15
28 -15 6 -1 20 -5 30 -10 13 -6 21 -5 24 3 7 23 22 11 22 -18 l0 -30 20 20
c25 25 52 26 78 3 18 -17 19 -25 12 -97 -12 -108 -16 -121 -44 -134 -20 -9
-27 -7 -45 12 -25 27 -26 36 -4 75 10 16 14 33 10 38 -11 10 -26 -15 -32 -57
-10 -64 -20 -85 -41 -88 -11 -2 -28 6 -38 17 -16 18 -21 18 -40 6 -17 -11 -30
-12 -66 -3 -25 6 -50 15 -57 20 -7 5 -17 7 -23 3 -5 -3 -13 1 -16 9 -8 20 -23
20 -44 1 -13 -12 -26 -13 -81 -3 -35 6 -70 18 -77 27 -11 13 -14 13 -27 -7
-13 -17 -20 -20 -40 -12 -17 7 -27 5 -36 -6 -13 -16 -63 -11 -87 9 -10 8 -16
7 -22 -3 -5 -7 -19 -14 -32 -15 -12 -2 -37 -6 -55 -10 -30 -7 -32 -6 -42 31
-6 22 -11 50 -11 63 0 36 -11 18 -21 -34 -5 -28 -18 -54 -31 -65 -22 -18 -24
-18 -38 -2 -15 17 -80 26 -80 11 0 -5 -14 -15 -30 -24 -17 -9 -30 -11 -30 -5
0 5 -7 10 -15 10 -8 0 -24 9 -35 20 l-20 20 0 -29 c0 -38 -19 -54 -44 -35 -11
7 -29 11 -42 8 -12 -3 -25 -1 -28 5 -13 20 -26 11 -20 -13 5 -22 3 -24 -43
-25 -125 -6 -146 -8 -186 -26 -10 -4 -23 -2 -31 4 -10 9 -16 9 -21 1 -4 -6 -4
-14 -1 -17 11 -11 -29 -32 -51 -26 -18 4 -23 1 -23 -16 0 -12 -7 -22 -15 -22
-8 -1 -21 -2 -27 -3 -7 -1 -23 19 -35 44 l-22 45 0 -47 c-1 -36 -5 -48 -16
-48 -8 0 -15 -4 -15 -10 0 -16 -32 -12 -52 7 -19 17 -19 16 -13 -9 9 -37 0
-48 -33 -39 -20 5 -35 22 -57 64 -16 31 -33 59 -37 63 -17 16 -6 -17 27 -82
34 -66 34 -69 15 -76 -11 -4 -20 -12 -20 -17 0 -5 -12 -12 -26 -15 -19 -5 -30
-2 -39 11 -17 23 -30 11 -16 -15 8 -15 7 -23 -3 -31 -7 -6 -16 -8 -19 -4 -4 3
-9 -2 -13 -11 -9 -22 -41 -20 -54 4 -16 29 -32 25 -18 -5 14 -31 8 -37 -34
-39 -22 -1 -34 -7 -36 -18 -7 -37 -35 -29 -90 24 -57 56 -60 52 -26 -31 18
-43 18 -61 -1 -61 -8 0 -12 -6 -9 -14 6 -16 -24 -36 -54 -36 -11 0 -23 -7 -26
-16 -4 -10 -13 -13 -27 -9 -19 6 -20 5 -9 -14 10 -19 8 -23 -20 -32 -24 -9
-29 -15 -25 -30 4 -10 4 -19 1 -19 -10 0 -50 24 -75 45 l-24 20 11 -20 c43
-80 47 -105 16 -105 -8 0 -19 -11 -24 -25 -5 -14 -16 -25 -24 -25 -7 0 -16
-12 -19 -27 -3 -16 -12 -37 -20 -47 -14 -19 -15 -19 -56 2 -50 27 -59 27 -39
5 38 -44 39 -59 11 -113 -15 -29 -36 -55 -47 -59 -13 -5 -16 -10 -8 -15 7 -4
12 -18 12 -32 0 -19 -5 -24 -27 -25 -53 -3 -94 3 -121 17 -15 8 -36 14 -47 13
-15 0 -12 -3 10 -12 17 -7 44 -20 62 -30 18 -9 39 -17 48 -17 8 0 15 -4 15
-10 0 -5 6 -10 14 -10 18 0 26 -32 13 -55 -7 -14 -6 -21 6 -30 14 -10 13 -13
-2 -34 -19 -25 -19 -80 -1 -91 9 -5 9 -13 2 -26 -8 -14 -5 -21 11 -35 16 -13
19 -20 10 -30 -14 -18 -11 -46 9 -87 10 -18 14 -40 11 -48 -3 -8 1 -14 10 -14
8 0 21 -13 29 -30 7 -16 19 -30 26 -30 7 0 15 -13 19 -30 3 -18 12 -30 22 -30
23 -1 50 -24 47 -41 -1 -8 -8 -24 -14 -36 -15 -27 -5 -29 26 -7 21 14 22 14
22 -9 0 -33 40 -59 78 -51 17 4 32 1 36 -5 4 -6 14 -11 22 -11 9 0 30 -11 47
-24 41 -29 62 -37 74 -25 5 5 40 1 89 -12 73 -20 124 -30 149 -30 30 1 57 9
66 18 6 6 35 8 68 6 49 -4 61 -2 72 14 30 42 63 34 71 -17 4 -22 5 -20 12 13
6 27 13 37 27 37 11 0 19 5 19 10 0 6 13 10 29 10 17 0 33 -4 36 -10 10 -17
33 -11 57 14 28 29 87 49 121 41 17 -5 26 -2 30 9 4 9 15 16 26 16 10 0 31 7
47 15 16 8 38 12 51 9 16 -4 25 -1 29 10 3 9 13 16 20 16 8 0 17 7 20 15 4 8
12 15 19 15 7 0 18 -7 25 -15 17 -21 27 -19 33 6 4 13 12 19 25 17 10 -1 36
10 58 27 41 31 42 32 91 41 27 5 33 2 47 -22 l15 -29 1 35 c0 43 13 65 33 57
9 -3 17 0 20 6 3 7 25 12 56 12 31 0 51 4 51 11 0 15 27 37 48 41 9 1 22 9 28
18 6 8 18 13 26 10 10 -4 17 6 24 37 9 41 10 43 67 56 l58 14 -28 30 c-26 27
-26 30 -10 39 9 6 17 16 17 24 0 7 9 16 19 20 17 5 18 10 8 35 -9 24 -8 32 7
49 13 14 16 28 12 45 -5 19 -1 28 14 36 11 6 19 14 18 18 -4 13 36 87 54 100
10 7 18 22 18 32 0 11 9 24 20 30 11 6 20 20 20 31 0 11 7 22 15 25 8 4 15 17
15 30 0 15 6 24 15 24 9 0 15 9 15 23 0 31 18 47 54 47 l31 0 -28 25 c-34 33
-34 62 1 100 15 16 27 33 27 38 0 5 9 15 19 23 11 8 16 14 12 14 -5 0 -3 7 5
16 7 8 20 13 30 11 15 -4 16 -2 6 20 -9 20 -8 27 3 37 8 6 15 18 15 26 0 8 10
19 22 25 12 5 25 22 29 37 3 17 17 34 35 43 16 9 29 22 29 30 0 8 4 15 9 15 4
0 6 10 4 23 -3 16 9 36 41 71 26 27 46 53 46 58 0 4 9 17 19 27 11 11 24 29
31 40 14 26 45 27 77 1 39 -30 53 -23 15 8 -31 26 -31 28 -18 55 8 15 12 27 9
27 -3 0 0 7 7 15 6 8 9 19 5 25 -4 7 2 14 13 17 11 3 23 15 26 28 4 15 15 25
29 27 14 2 23 11 25 26 2 13 14 28 28 34 13 6 24 19 24 30 0 17 16 22 58 21 9
-1 12 6 8 21 -8 34 9 51 53 51 35 0 40 3 43 24 2 15 15 31 33 41 17 9 36 29
43 44 9 18 19 25 29 22 9 -4 22 -1 30 5 10 9 17 9 25 1 9 -9 14 -6 23 11 6 12
18 22 26 22 9 0 23 6 32 13 8 7 19 12 23 11 15 -4 64 20 64 30 0 6 6 8 14 5 7
-3 16 2 19 10 10 24 44 19 51 -6z m-1934 -639 c0 -14 -17 -10 -23 5 -4 10 -1
13 9 9 7 -3 14 -9 14 -14z m3507 -915 c-3 -3 -12 -4 -19 -1 -8 3 -5 6 6 6 11
1 17 -2 13 -5z m-2492 -934 c-3 -5 -11 -10 -16 -10 -6 0 -7 5 -4 10 3 6 11 10
16 10 6 0 7 -4 4 -10z m635 -119 c0 -6 -4 -13 -10 -16 -5 -3 -10 1 -10 9 0 9
5 16 10 16 6 0 10 -4 10 -9z m-3699 -104 c-16 -16 -26 0 -10 19 9 11 15 12 17
4 2 -6 -1 -17 -7 -23z m2979 -307 c0 -5 -7 -10 -15 -10 -8 0 -15 5 -15 10 0 6
7 10 15 10 8 0 15 -4 15 -10z m-4070 -734 c0 -3 -4 -8 -10 -11 -5 -3 -10 -1
-10 4 0 6 5 11 10 11 6 0 10 -2 10 -4z m4980 -76 c0 -5 -5 -10 -11 -10 -5 0
-7 5 -4 10 3 6 8 10 11 10 2 0 4 -4 4 -10z m-3220 -350 c0 -5 -7 -10 -16 -10
-8 0 -12 5 -9 10 3 6 10 10 16 10 5 0 9 -4 9 -10z m-810 -340 c0 -5 -5 -10
-11 -10 -5 0 -7 5 -4 10 3 6 8 10 11 10 2 0 4 -4 4 -10z m-260 -760 c0 -5 -5
-10 -11 -10 -5 0 -7 5 -4 10 3 6 8 10 11 10 2 0 4 -4 4 -10z"/>
<path d="M7020 7381 c0 -25 6 -27 13 -6 4 8 2 17 -3 20 -6 4 -10 -3 -10 -14z"/>
<path d="M5450 7180 c0 -5 5 -10 10 -10 6 0 10 5 10 10 0 6 -4 10 -10 10 -5 0
-10 -4 -10 -10z"/>
<path d="M7017 7173 c-5 -4 -25 -8 -45 -10 -63 -4 -81 -9 -99 -25 -10 -9 -22
-16 -28 -16 -5 1 -17 -12 -25 -28 -8 -15 -25 -37 -38 -47 -13 -11 -21 -25 -18
-33 7 -17 -10 -28 -20 -13 -5 9 -10 8 -18 -2 -14 -18 -35 -22 -50 -11 -6 5
-19 12 -29 15 -16 6 -16 4 -2 -23 17 -33 20 -60 5 -60 -5 0 -10 -11 -10 -24 0
-16 -7 -26 -21 -29 -15 -4 -20 -11 -16 -21 4 -9 2 -16 -4 -16 -6 0 -9 -6 -6
-14 8 -21 -36 -59 -51 -44 -18 18 -25 3 -10 -22 12 -20 10 -24 -14 -42 -24
-19 -25 -23 -13 -42 19 -29 9 -69 -17 -63 -10 3 -18 0 -17 -6 4 -31 -2 -38
-22 -32 -18 6 -19 5 -10 -13 14 -27 14 -32 -3 -32 -15 0 -26 -21 -26 -51 0
-16 -4 -19 -22 -13 -13 3 -27 10 -33 14 -5 4 -19 10 -30 14 -15 6 -13 0 11
-26 37 -39 49 -68 29 -68 -20 0 -29 -20 -16 -33 16 -16 14 -27 -5 -27 -8 0
-12 -5 -9 -11 4 -6 -3 -13 -15 -16 -14 -4 -20 -12 -17 -23 6 -22 -10 -50 -27
-50 -7 0 -43 16 -80 36 -37 19 -69 34 -72 32 -2 -2 28 -28 67 -57 38 -28 73
-59 76 -68 8 -21 -15 -33 -43 -23 -21 8 -22 7 -17 -26 4 -22 2 -34 -6 -34 -16
0 -13 -41 5 -61 17 -19 54 -14 54 7 0 8 6 14 13 14 7 0 21 13 30 29 16 28 52
49 64 38 8 -8 83 71 83 88 0 18 1 18 35 5 22 -8 27 -7 37 15 7 16 19 25 34 25
17 0 21 4 17 21 -4 13 1 25 15 35 11 8 22 24 24 37 2 16 9 21 25 20 16 -2 23
4 25 20 2 16 10 22 28 22 18 0 29 8 37 28 13 29 40 35 62 15 11 -11 11 -9 2 9
-15 30 -14 60 3 66 9 4 12 14 9 26 -4 16 -1 21 15 21 22 0 52 48 52 82 0 11 7
18 19 18 22 0 43 23 40 42 -5 21 20 58 39 58 10 0 24 -6 31 -12 11 -11 12 -8
7 16 -9 36 21 136 40 136 8 0 14 5 14 10 0 6 11 15 25 20 26 10 26 34 0 44
-11 4 -11 12 -3 39 13 44 4 89 -17 81 -18 -7 -20 18 -5 47 7 11 7 19 1 19 -5
0 -16 2 -23 5 -8 3 -17 2 -21 -2z"/>
<path d="M4280 6918 c0 -9 5 -20 10 -23 13 -8 13 5 0 25 -8 13 -10 13 -10 -2z"/>
<path d="M7055 6730 c3 -5 11 -10 16 -10 6 0 7 5 4 10 -3 6 -11 10 -16 10 -6
0 -7 -4 -4 -10z"/>
<path d="M7185 6610 c3 -5 8 -10 11 -10 2 0 4 5 4 10 0 6 -5 10 -11 10 -5 0
-7 -4 -4 -10z"/>
<path d="M6915 6520 c3 -5 16 -15 28 -21 22 -12 22 -12 3 10 -19 21 -43 30
-31 11z"/>
<path d="M3066 5895 c10 -8 24 -14 29 -14 6 0 1 6 -9 14 -11 8 -24 15 -30 15
-5 0 -1 -7 10 -15z"/>
<path d="M5800 5720 c0 -10 50 -23 58 -15 3 3 2 8 -1 11 -10 10 -57 13 -57 4z"/>
<path d="M2985 5337 c-11 -7 -22 -15 -25 -18 -3 -3 -26 -14 -52 -25 -50 -20
-59 -31 -32 -41 16 -6 79 19 130 52 17 11 40 25 50 32 17 10 15 12 -16 12 -19
0 -44 -6 -55 -12z"/>
<path d="M5680 5302 c0 -11 109 -66 116 -59 3 3 -10 13 -30 22 -19 9 -40 23
-47 31 -12 15 -39 19 -39 6z"/>
<path d="M5824 5225 c11 -8 22 -12 25 -9 6 6 -19 24 -34 24 -5 -1 -1 -7 9 -15z"/>
<path d="M4640 5001 c0 -12 5 -21 10 -21 6 0 10 6 10 14 0 8 -4 18 -10 21 -5
3 -10 -3 -10 -14z"/>
<path d="M3275 4915 c-5 -11 -10 -24 -13 -30 -3 -5 3 -3 13 7 9 9 15 22 12 30
-3 9 -7 7 -12 -7z"/>
<path d="M2888 4474 c-9 -8 1 -65 13 -78 5 -6 9 2 8 20 -1 36 -12 67 -21 58z"/>
<path d="M5530 4316 c13 -17 151 -89 157 -83 4 4 -152 97 -163 97 -4 0 -1 -6
6 -14z"/>
<path d="M5590 4181 c19 -17 40 -31 46 -31 6 0 17 -7 24 -15 7 -8 17 -15 23
-15 20 0 -24 37 -76 64 l-52 28 35 -31z"/>
<path d="M2500 4196 c0 -2 8 -10 18 -17 15 -13 16 -12 3 4 -13 16 -21 21 -21
13z"/>
<path d="M5030 4101 c14 -27 102 -101 120 -101 10 1 4 10 -15 26 -16 15 -47
42 -68 60 -44 39 -52 42 -37 15z"/>
<path d="M5160 4116 c0 -2 8 -10 18 -17 15 -13 16 -12 3 4 -13 16 -21 21 -21
13z"/>
<path d="M5340 4070 c35 -29 50 -36 50 -22 0 8 -65 52 -77 52 -4 0 8 -13 27
-30z"/>
<path d="M5230 4053 c0 -5 11 -20 25 -33 14 -13 25 -19 25 -13 0 5 -11 20 -25
33 -14 13 -25 19 -25 13z"/>
<path d="M5409 4023 c12 -23 29 -38 37 -31 2 3 -8 15 -22 29 -25 23 -26 23
-15 2z"/>
<path d="M5488 3951 c18 -17 37 -31 43 -31 14 0 -9 22 -46 44 l-30 18 33 -31z"/>
<path d="M4920 3868 c0 -11 59 -72 64 -67 3 3 -10 21 -29 39 -19 19 -35 31
-35 28z"/>
<path d="M3905 3830 c11 -5 29 -8 40 -8 16 0 15 2 -5 8 -34 11 -60 11 -35 0z"/>
<path d="M3335 3530 c10 -11 20 -20 22 -20 2 0 -2 9 -9 20 -7 11 -17 20 -22
20 -5 0 -1 -9 9 -20z"/>
<path d="M1878 3193 c6 -2 18 -2 25 0 6 3 1 5 -13 5 -14 0 -19 -2 -12 -5z"/>
</g>
</svg>
